<?xml version="1.0" encoding="utf-8"?>
<!-- Generator: Adobe Illustrator 22.1.0, SVG Export Plug-In . SVG Version: 6.00 Build 0)  -->
<svg version="1.1" id="Layer_1" xmlns="http://www.w3.org/2000/svg" xmlns:xlink="http://www.w3.org/1999/xlink" x="0px" y="0px"
	 viewBox="0 0 97.8 63.4" style="enable-background:new 0 0 97.8 63.4;" xml:space="preserve">
<style type="text/css">
	.st0{fill:#006838;}
	.st1{fill:#BCBEC0;}
</style>
<g>
	<path class="st0" d="M52.1,21.6c1.5-0.8,1.8-2.4,0.6-3.5c-1.1-1-2.6-0.7-3.3,0.6C48.5,20.8,50.2,22.6,52.1,21.6L52.1,21.6z
		 M50.9,20.5c-0.4-0.3-0.6-1-0.3-1.4c0.6-0.8,2,0.1,1.5,1C51.8,20.6,51.3,20.8,50.9,20.5z"/>
	<path class="st0" d="M48.3,51.4c-0.2,0-0.4,0.1-0.4,0.2c0,0.1,0.2,0.2,0.4,0.2s0.4-0.1,0.4-0.2C48.6,51.5,48.5,51.4,48.3,51.4z"/>
	<path class="st0" d="M35.1,44.4c0-0.1-0.3-0.2-0.7-0.2c-0.7,0-0.7,0-0.1,0.2c0.3,0.1,0.6,0.2,0.7,0.2
		C35.1,44.6,35.1,44.5,35.1,44.4z"/>
	<path class="st0" d="M28.7,52.8c0,0,0.1-0.2,0.2-0.4c0.1-0.3,0-0.4-0.2-0.4c-0.2,0-0.2,0.2-0.2,0.4C28.6,52.7,28.7,52.8,28.7,52.8z
		"/>
	<path class="st0" d="M64.3,11.2c0.1-0.1,0-0.3-0.1-0.5c-0.2-0.2-0.2-0.4-0.1-0.5c0.1-0.1,0-0.1-0.1,0c-0.2,0.1-0.2,0.3,0,0.7
		C64,11.1,64.2,11.3,64.3,11.2z"/>
	<path class="st0" d="M29.6,50.9c0.1,0,0.2,0.1,0.1,0.3c-0.1,0.2-0.1,0.2,0.1,0.1c0.1-0.1,0.3-0.4,0.4-0.6c0.1-0.3,0-0.5-0.1-0.5
		c-0.1,0-0.2,0.1-0.2,0.3c0,0.2-0.1,0.2-0.2-0.1c-0.2-0.3-0.2-0.3-0.2,0.1C29.3,50.7,29.4,50.9,29.6,50.9z"/>
	<path class="st0" d="M37.1,50.2c-1.2,0-1.9,0.6-2.1,1.7c-0.3,1.8,1.7,3.1,3.6,2.4l0,0c0.4-0.1,0.7-0.5,0.9-1.1
		C40,51.6,38.9,50.2,37.1,50.2z M37.9,52.7c-0.2,0.5-1.1,0.5-1.3,0c-0.2-0.5,0.1-1.1,0.5-1.1C37.6,51.6,38.1,52.3,37.9,52.7z"/>
	<path class="st0" d="M68.7,11.7c-0.1,0.4-0.2,0.9-0.3,1c-0.1,0.1,0,0.2,0.2,0.2c0.3,0,0.3-0.3,0.3-1C68.9,10.9,68.9,10.9,68.7,11.7
		z"/>
	<path class="st0" d="M90.4,34.3V29l2.7-15.5l-2.4-3.2L80.3,0l-12,2.4c0.1,0.1,0.1,0.1,0.1,0.1c0,0-0.1,0-0.2-0.1l-1,0.2
		c1,0.4,1.8,0.8,1.8,0.9c0,0.3-0.2,0.2-1.7-0.4l0,0C67,3,66.7,2.9,66.4,2.8l-1,0.2c1.9,0.9,3.9,1.8,4,1.9c0.3,0.3-0.2,0.2-1.1-0.1
		l0,0c-0.5-0.2-1.6-0.7-2.3-1c-0.3-0.1-0.8-0.3-1.3-0.6l-1,0.2c1,0.4,1.9,0.9,2.6,1.2c1.6,0.7,3.1,1.4,3.3,1.6
		c0.4,0.4,0.3,0.4-0.2,0.1C69.2,6.1,68.8,6,68.5,6C68.2,6,68,5.8,68,5.7c0-0.1-0.1-0.2-0.3-0.2s-1.1-0.4-2.2-0.9
		c-0.9-0.5-1.9-0.9-2.3-1.1l-1.2,0.3c0.1,0,0.1,0,0.1,0c0.1,0,0.5,0.2,0.9,0.3c0.4,0.2,1.5,0.6,2.3,1s1.9,0.8,2.3,1
		c0.4,0.2,1.1,0.5,1.6,0.7c0.5,0.2,0.9,0.5,0.9,0.6c0,0.1,0,0.2-0.1,0.2c0,0-0.2-0.1-0.4-0.2l0,0c-0.2-0.1-1-0.4-1.7-0.8
		S66.6,6,66.5,6c-0.3-0.1-1.2-0.4-2.1-0.8c-0.5-0.2-1.9-0.8-3-1.3c0,0-0.1,0-0.1-0.1L60.6,4c0.3,0.2,0.6,0.3,0.9,0.4
		c1,0.5,2.3,1.1,2.9,1.3c2.6,0.9,6,2.5,6,2.7c0,0.2-0.4,0.1-1.7-0.5c-0.7-0.3-2.6-1.1-4.1-1.7c-1.5-0.6-3-1.2-3.3-1.4
		c-0.3-0.2-1-0.5-1.6-0.7L59,4.3c1.5,0.5,4.6,2,4.6,2.4c0,0.3,0,0.3-1.1-0.1c-1-0.4-1.2-0.4-1-0.1c0.1,0.1,0.4,0.4,0.8,0.5
		c0.4,0.2,0.5,0.3,0.4,0.5c-0.2,0.2-0.5,0.1-0.9-0.1c-1.1-0.5-1.3-0.4-0.4,0.2C62.2,8,62.2,8,61.5,8.5c-0.8,0.6-1.1,0.7-2.2,0.2h0
		c-0.5-0.2-0.8-0.5-0.8-0.9c0-0.3-0.1-0.8-0.1-1.1c-0.1-0.4,0-0.5,0.3-0.6c0.4,0,0.4,0,0-0.3c-0.2-0.1-0.4-0.4-0.4-0.6
		c0-0.4,0.1-0.4,1,0c1,0.5,1.9,0.9,1.9,0.7c0-0.1-0.7-0.5-1.6-0.8c-0.8-0.3-1.2-0.6-1.3-0.7L55.4,5c0.9,0.2,1.2,0.4,1.3,0.9
		c0.1,0.3,0.2,0.8,0.3,1c0.1,0.4-1.5,2.6-2,2.6c-0.1,0-0.9-0.5-1.7-1.1c-0.8-0.6-2.3-1.6-3.3-2.2c-0.1,0-0.2-0.1-0.2-0.1l-32.3,6.6
		h-5.4l0.7-7.4L0,14.8l7.5,48.6l19-3.7c-0.1,0-0.2-0.1-0.2-0.1c-0.2-0.2-0.2-0.2,0.7,0l1.6-0.3c-0.5-0.1-1.1-0.2-1.7-0.4h0
		c-0.9-0.2-1.4-0.4-1.2-0.5c0.4,0,2.8,0.5,3.6,0.7l3.7-0.7c-0.2-0.1-0.3-0.2-0.3-0.2c0-0.8,2.1-0.9,2.9-0.3l5.1-1
		c-0.3-0.2-0.1-0.3,0.2-0.6c0.3-0.2,0.8-0.8,1-1.3c0.6-1.1,0.4-1.1,2.8-0.3c1.5,0.5,2.2,0.7,2.3,1l42.8-8.4l5.4-2.7l2.8-7.5
		L90.4,34.3z M65.3,7.2c0.4,0,1.5,0.6,1.5,0.8c0,0.2-0.2,0.2-1-0.1C65.1,7.6,64.8,7.2,65.3,7.2z M65.7,8.5c0.5,0.4,0.4,0.4-0.4,0.2
		c-0.2-0.1-0.4-0.2-0.4-0.3C64.8,8,65.2,8.1,65.7,8.5z M62.4,11.2c0.1-1.4,0.1-1.5,0.8-2c0.7-0.5,1.2-0.5,1.8,0c0,0-0.1,0.4-0.3,0.8
		c-0.3,0.5-0.3,0.9-0.1,1.5c0.2,0.8,0.3,0.8,0.3,0.2c0.1-0.3,0.3-0.8,0.5-1c0.3-0.4,0.3-0.5-0.2-0.5c-0.1,0-0.2-0.1-0.2-0.3
		c0-0.2,0.2-0.4,0.3-0.4c0.5,0,0.7,0.7,0.3,1.2c-0.4,0.4-0.5,1-0.2,1c0.1,0,0.3-0.2,0.4-0.5c0.1-0.3,0.2-0.5,0.3-0.4
		s0.1,0.3-0.1,0.6c-0.1,0.2-0.1,0.8,0,1.2c0.1,0.5,0.2,0.6,0.2,0.2c0-0.5,0-0.5,0.3,0c0.3,0.7,0.3,0.8-0.3,0.8
		c-0.3,0-0.5-0.1-0.6-0.1h0c0,0-0.6-0.1-1.2-0.2C62.5,13.1,62.4,12.9,62.4,11.2z M61.4,19.1c0-0.2,0.2-1.3,0.4-2.5
		c0.2-1.1,0.4-2.1,0.4-2.2c0-0.1,0.1,0,0.2,0.1c0.4,0.4-0.3,4.9-0.7,4.9C61.5,19.5,61.4,19.3,61.4,19.1L61.4,19.1z M61.4,21.4
		c0,0.8-2.2,5.7-2.6,5.8c-0.1,0-0.3-0.1-0.4-0.3v0c-0.1-0.2,0.1-0.8,0.4-1.3c0.7-1.2,1.2-2.3,1.6-3.7C60.8,20.6,61.5,20.3,61.4,21.4
		z M54.9,32.5c0-0.2,0.3-0.8,0.6-1.2c0.3-0.4,0.9-1.3,1.2-1.9c0.6-1.1,1.2-1.4,1.3-0.7c0,0.2-0.2,0.7-0.5,1s-0.6,0.7-0.6,0.8
		c0,0.1-0.4,0.7-1,1.3C55.2,32.6,54.9,32.8,54.9,32.5L54.9,32.5z M53.6,26.7L53.6,26.7c-1.9-1.7-2.2-2.2-1.1-2.2
		c0.4,0,0.8-0.1,0.9-0.2s0.4-0.2,0.6-0.2c0.3,0,0.6-0.2,0.7-0.6c0.1-0.3,0.4-0.6,0.6-0.7c0.5-0.2,2.4,0.5,2.6,0.9
		c0.1,0.3-2.2,4.5-2.5,4.5C55.3,28.2,54.5,27.5,53.6,26.7z M57.2,21.6L57.2,21.6c-0.9-0.5-0.9-0.6-1-1.9c0-0.7-0.2-1.7-0.4-2.1
		c-0.6-1.1-0.6-1.1,1.1-0.9c3.1,0.3,3.1,0.3,3,1.2c-0.4,1.9-1.2,4.3-1.4,4.3C58.3,22.1,57.8,21.9,57.2,21.6z M54.3,14.2
		c0.1-0.3,0.3-0.7,0.4-0.7s0.5-0.7,1-1.5c0.4-0.8,1-1.7,1.3-2.1c0.5-0.7,0.5-0.7,2.1,0.2c1.7,0.9,1.6,0.6,1.3,3.9
		c-0.2,1.6-0.2,1.6-1.3,1.5c-0.8-0.1-1.2-0.1-1.2,0.1c0,0.4-0.4,0.3-0.6-0.1h0c-0.1-0.2-0.5-0.4-1.1-0.4
		C54.6,15.1,54.1,14.9,54.3,14.2z M53.4,10.8c0.1-0.1,0.3,0.1,0.5,0.3c0.3,0.3,0.3,0.6-0.6,2.1c-1,1.7-1.6,2.2-1.6,1.3v0
		C51.7,14.1,53.1,11.1,53.4,10.8z M43.3,13.9c0.1-0.4,0.4-1.1,0.7-1.5s0.5-1,0.5-1.2c0-0.4,0-0.4,0.4-0.1c0.8,0.7,3.4,2.1,3.8,2.1
		c1,0-0.3-1.3-2.4-2.4c-1.5-0.8-1.5-0.8-1-1.7c0.3-0.5,0.8-1.2,1.1-1.6C47,6.9,47,6.9,47.6,7.2c0.3,0.2,1.5,0.9,2.8,1.6
		c1.2,0.7,2.2,1.4,2.2,1.6c0,0.2-0.5,1.3-1.1,2.4c-1,1.8-1.3,2.1-2.1,2.5c-0.5,0.2-1.1,0.6-1.3,0.8c-0.4,0.5-0.6,0.5-2.9-0.6
		C43.1,14.7,43.1,14.7,43.3,13.9z M47.7,29.7c-0.2,0.2-0.3,0.2-0.3-0.3c0-0.5,0.1-0.5,0.3-0.3C47.9,29.3,47.9,29.5,47.7,29.7z
		 M42.5,18.3c0.1,0,0.2-0.5,0.1-0.9c-0.1-0.9-0.1-0.9,1.9,0.2s2,1,1.9,2c-0.2,1.3,0.2,2.5,0.9,3.5c0.6,0.7,0.6,0.7,0.2,1.6
		c-0.3,0.8-0.8,1.3-0.5,0.5v0c0.1-0.2,0-0.4-0.1-0.5c-0.1-0.1-0.2-0.3-0.2-0.4c0-0.2,0.1-0.1,0.4,0c0.6,0.5,0.5-0.1-0.2-1.2
		c-0.3-0.5-0.6-1.3-0.7-1.7c-0.1-0.4-0.3-0.9-0.4-0.9c-0.4-0.2-1.1-0.3-1.1,0c0,0.1-0.2,0.1-0.4,0c-0.3-0.1-0.3-0.2-0.1-0.3
		c0.2-0.1,0.3-0.2,0.3-0.3c0-0.1-0.2-0.1-0.5,0c-0.4,0.2-0.6,0.2-0.7-0.1c-0.2-0.3-0.2-0.2-0.2,0.1c0,0.3-0.1,0.4-0.4,0.3
		C42,20.1,42.1,18.5,42.5,18.3z M46.4,25.8c0.5,0,0.7,0.1,0.7,0.4c0,0.4-0.1,0.4-0.9,0h0C45.6,25.8,45.6,25.8,46.4,25.8z M45.7,22.6
		c-0.1,0-0.3-0.1-0.4-0.2s0-0.2,0.2-0.2s0.4,0.1,0.4,0.2S45.9,22.6,45.7,22.6z M46.2,23.6c0-0.5,0.1-0.5,0.3-0.3
		c0.2,0.2,0.2,0.4,0,0.6C46.3,24.1,46.2,24.1,46.2,23.6z M41.8,22.2c0.2-0.8,0.2-0.8,1-0.4c0.7,0.5,0.6,0.8-0.1,0.4
		c-0.4-0.2-0.5-0.2-0.8,0.2C41.6,22.7,41.6,22.7,41.8,22.2z M42,23.4c0.2,0.2,0.3,0.4,0.2,0.4c-0.1,0.1,0.1,0.2,0.3,0.4
		c0.5,0.4,0.4,0.4-0.4,0c-0.3-0.1-0.5-0.5-0.5-0.7C41.6,23.2,41.7,23.2,42,23.4z M41.2,26.4c0.2-0.2,0.9,0.1,0.9,0.4
		c0,0.3-0.3,0.3-0.7,0h0C41.2,26.6,41.1,26.5,41.2,26.4z M29.7,44.4c1-1.3,1.5-1.5,1.4-0.4c0,0.5,0.1,0.6,0.3,0.5
		c0.2-0.1,0.3,0,0.3,0.3c0,0.3,0.1,0.3,0.2-0.1c0.1-0.3,0.2-0.4,0.2-0.1c0,0.3,0,0.3,0.3,0c0.1-0.2,0.2-0.3,0.2-0.1
		c0,0.5-0.4,0.7-1.1,0.8c-0.4,0-0.8,0.2-0.9,0.4c-0.1,0.2-0.2,0.1-0.1-0.4c0.1-0.4,0-0.7-0.1-0.8c-0.1-0.1-0.2,0-0.1,0.1
		c0.1,0.1,0,0.4-0.2,0.7c-0.2,0.3-0.3,0.6-0.4,0.8c0,0.3,0,0.3,0.2,0c0.2-0.3,0.2-0.3,0.2,0c0,0.5,0.4,0.8,0.7,0.6
		c0.1-0.1,0-0.3-0.2-0.4c-0.3-0.2-0.3-0.2,0.1-0.2c0.2,0,0.4-0.1,0.3-0.2c-0.1-0.1,0-0.2,0.2-0.2c0.3,0,0.3,0.1,0,0.6
		c-0.3,0.7-0.3,0.9,0.1,0.6c0.1-0.1,0.2-0.3,0.1-0.4s0.1-0.1,0.4,0.2c0.4,0.4,0.5,0.5,0.3,0.8c-0.4,0.4-0.4,0.4-1.4-0.4
		c-0.5-0.4-1.1-0.8-1.4-1C28.7,45.7,28.7,45.7,29.7,44.4z M25.7,50.7c0.1,0,0.7,0.2,1.4,0.5c1.6,0.6,1.9,0.6,1.9,0
		c0-0.3-0.1-0.4-0.3-0.3c-0.2,0.1,0.1-0.2,0.5-0.6c0.5-0.4,0.9-0.7,1.1-0.6c0.1,0.1,0.2,0,0.1-0.1c-0.1-0.2-0.3-0.2-0.6,0
		c-0.3,0.3-0.4,0.2-0.2-0.2c0.3-0.8-0.3-0.7-0.5,0.2c-0.1,0.4-0.4,0.7-0.6,0.7c-0.3,0-0.3-0.1,0.1-0.5c0.3-0.3,0.5-0.7,0.5-0.9
		c0-0.3-0.1-0.3-0.1-0.1c-0.1,0.2-0.2,0.2-0.5-0.1c-0.3-0.4-0.3-0.4-0.1,0.1c0.3,0.7,0.1,1.1-0.6,1c-0.6-0.1-0.6-0.1-0.2,0.4
		c0.4,0.5,0.4,0.5-0.5,0c-1.1-0.5-1.1-0.5-0.4-1.6c0.9-1.3,1.1-1.3,2.7-0.3c1.3,0.8,1.4,1,1.3,1.5c-0.1,0.3-0.2,0.9-0.3,1.3
		c-0.2,0.8-0.6,1.2-0.9,0.8c-0.1-0.2-0.2-0.2-0.1,0.1c0.1,0.2,0,0.5-0.2,0.5c-0.2,0.1-0.1,0.1,0.1,0.1s0.4-0.1,0.4-0.2
		s0.1-0.2,0.2-0.2s0.3,0.6,0.4,1.3c0.2,0.9,0.2,1.3,0,1.3c-0.1,0-1.5-0.3-3-0.6l0,0c-1.5-0.3-2.9-0.7-2.9-0.9
		C24.2,53,25.4,50.7,25.7,50.7z M26.9,57.9c-0.2,0-0.9-0.2-1.5-0.4c-1.1-0.3-1.1-0.3,0-0.2C26.4,57.5,27.7,57.9,26.9,57.9z
		 M28.5,58.3c-1-0.3-1-0.3-0.2-0.3c0.9,0,1.5,0.2,1.5,0.5C29.8,58.7,29.7,58.7,28.5,58.3z M31.2,57.4c-0.3,0.5-0.9,0.6-1.9,0.2h0
		c-0.3-0.1-1.6-0.4-2.8-0.7c-2.2-0.4-2.6-0.7-2.1-1.4c0.1-0.2,0.5-0.2,1.5,0c0.7,0.2,1.6,0.4,2,0.5c1,0.2,3.4,0.7,3.5,0.8
		C31.5,56.9,31.4,57.1,31.2,57.4z M32.2,55.1L32.2,55.1c-0.4-0.2-0.7-3.5-0.4-4.3c0.1-0.4,0.2,0,0.2,1.2c0,1.3,0.1,1.9,0.4,2.4
		C33.1,55.3,33,55.5,32.2,55.1z M32.8,46.1c-0.3-0.3-0.3-0.4,0-0.7c0.2-0.2,0.3-0.4,0.2-0.5c-0.1-0.2,0.5-0.1,1.7,0.4
		c0.3,0.1,0.1-0.1-0.3-0.3c-0.4-0.3-0.8-0.6-0.8-0.7s-0.2-0.4-0.4-0.6c-0.3-0.3-0.3-0.4,0.2-0.4c0.3,0,0.6-0.1,0.6-0.2
		s0.1-0.2,0.3-0.2c0.2,0,0.2,0,0.1,0c-0.1-0.1-0.2-0.3-0.2-0.6c0-0.5,0-0.5-0.2,0.1c-0.2,0.7-1.4,0.9-1.8,0.2
		c-0.2-0.2-0.4-0.4-0.5-0.3c-0.1,0.1-0.1,0,0-0.1c0.1-0.2,0.3-0.2,0.4-0.2c0.1,0.1,0.2,0,0.1-0.2s0.2-0.6,0.6-1
		c0.7-0.7,0.7-0.7,2.5,0.9c1.6,1.5,2.5,2.8,2.6,3.7c0,0.2-0.4,0.3-1.4,0.3c-0.8,0-1.8,0.2-2.4,0.5C33.3,46.5,33.2,46.5,32.8,46.1z
		 M33.9,48L33.9,48c1.6-1.1,4.5-1.6,4.8-0.8c0,0.1-0.6,0.2-1.7,0.2c-1.5,0-1.9,0.1-2.7,0.7c-0.5,0.4-1.1,0.7-1.2,0.7
		C32.9,48.7,33.3,48.4,33.9,48z M40.1,54.2c-0.8,1.3-2.3,1.8-3.9,1.3h0c-2.8-0.8-3.1-5.1-0.5-6.2C38.8,48,41.9,51.4,40.1,54.2z
		 M42,48.4c-0.6,0.7-0.6,0.7-1.3-0.9h0c-0.4-0.9-0.7-1.7-0.7-1.8c0.1-0.1,2.4,1.5,2.5,1.7C42.6,47.5,42.3,48,42,48.4z M49.2,52.3
		c-0.5,0.2-1.8-0.4-1.8-0.9c0-0.3-0.1-0.3-0.2-0.1c-0.3,0.4-1.7-0.2-1.5-0.6c0.1-0.2,0-0.3-0.2-0.1c-0.2,0.1-0.7,0.2-1.1,0.1
		c-1.6-0.1-0.7,0.5,3.2,2.3c0.8,0.4,0.9,0.5,0.7,0.7c-0.3,0.3-1.1,0.4-1.1,0l0,0c0-0.1-0.1-0.2-0.3-0.1c-0.1,0.1-0.3-0.1-0.4-0.3
		c-0.1-0.3-0.2-0.5-0.4-0.5c-0.1,0-0.2,0.1-0.1,0.2c0.1,0.1,0,0.2-0.2,0.2s-0.5-0.2-0.6-0.5c-0.2-0.4-0.2-0.4-0.2-0.1
		c0,0.3-0.1,0.4-0.4,0.3c-0.2-0.1-0.3-0.3-0.2-0.5c0.2-0.4-0.2-0.4-0.9-0.1c-0.5,0.3-0.9,0.1-1.1-0.8c-0.1-0.6,0.3-1.5,1.4-3
		c0.1-0.1,1.4,0.6,2.6,1.4c0.6,0.4,1.2,0.7,1.3,0.7c0.5,0,1.7,0.8,1.7,1.2C49.6,52,49.4,52.2,49.2,52.3z M48.6,25.6
		c0.5-1.5,0.9-1.3,0.5,0.3c-0.3,1.1-0.6,1.5-0.8,1.2C48.2,26.9,48.4,26.3,48.6,25.6z M49.9,23c-1.9-0.7-2.5-2.8-1.5-4.9
		c0.7-1.3,1.5-1.8,3.1-1.8c2.1,0,3.5,1.9,3,4.2C54.2,22.7,52.1,23.8,49.9,23L49.9,23z M53.5,34.5c-0.4,0.2-0.5,0.2-0.5-0.1
		c0-0.5,0.3-0.6,0.7-0.4C53.9,34.1,53.9,34.2,53.5,34.5z M53.7,30.7c-0.8,0.9-0.9,0.9-1.3,0.5l0,0c-0.4-0.3-0.4-0.4-0.1-0.3
		c0.2,0.1,0.5,0,0.5-0.2c0.1-0.2,0-0.3-0.1-0.2c-0.3,0.2-1-0.1-0.8-0.4c0.1-0.1,0-0.2-0.1-0.2c-0.2,0-0.2-0.2-0.1-0.6
		c0.1-0.3,0.1-0.6-0.1-0.6c-0.3,0-0.6,0.7-0.4,1c0.1,0.1-0.1,0.1-0.4,0c-0.3-0.2-0.5-0.2-0.5-0.1c0,0.1-0.1,0-0.2-0.1
		c-0.1-0.2-0.1-0.6,0.1-0.9c0.2-0.3,0.3-1,0.2-1.4c-0.1-0.5,0-0.8,0.1-0.8c0.1,0,1.1,0.8,2.1,1.8C54.5,29.8,54.5,29.8,53.7,30.7z
		 M59.1,39.3c-0.1,0-0.6-0.5-1.2-1.1v0c-0.6-0.6-1-1-1-1s-0.2-0.1-0.5-0.3c-0.3-0.2-0.7-0.7-1.1-1c-0.3-0.3-0.6-0.7-0.6-0.8
		c0-0.3,3,2.3,3.5,2.9c0.2,0.2,0.5,0.5,0.7,0.6C59.3,38.8,59.5,39.3,59.1,39.3z M62.3,34.5c-0.2,0-0.6-0.3-0.9-0.6
		c-0.3-0.3-0.8-0.6-1-0.7c-0.2,0-0.6-0.2-1-0.5c-0.7-0.4-0.7-0.4-0.4,0.1c0.2,0.3,0.8,1.1,1.5,1.7c0.8,0.7,1.2,1.2,1,1.4
		c-0.1,0.2-0.3,0.3-0.5,0.2c-0.2-0.1-0.3,0-0.3,0.2s0.1,0.3,0.2,0.2c0.1-0.1,0.1,0.1,0,0.4c-0.3,0.6-0.4,0.6-0.8,0
		c-0.2-0.3-0.4-0.5-0.4-0.3s-0.2,0-0.4-0.2c-0.5-0.5-0.5-0.6,0.1-0.5c0.5,0.1,0.9-0.3,0.5-0.5c-0.2-0.1-0.2-0.1-0.1,0.1
		c0.2,0.3-0.1,0.4-0.6,0c-0.2-0.1-0.4-0.1-0.5,0c-0.1,0.1-0.2,0.1-0.3-0.1c-0.1-0.2-0.1-0.3,0.1-0.2c0.1,0.1,0.2,0,0.2-0.2
		s0-0.5,0-0.8c0-0.4,0.1-0.4,0.3-0.1c0.3,0.6,1.2,1.1,1,0.5c-0.1-0.2-0.2-0.3-0.3-0.3c-0.1,0.1-0.4-0.2-0.8-0.7
		c-0.4-0.4-0.7-0.6-0.7-0.5c0,0.2,0.1,0.3,0.2,0.3c0.1,0,0.2,0.2,0.1,0.4c-0.1,0.3-0.2,0.3-0.5-0.1c-0.3-0.4-0.3-0.3-0.3,0.3
		c0,0.7,0,0.7-0.4,0.5c-0.2-0.1-0.4-0.4-0.4-0.5S56.9,34,56.8,34c-0.2,0-0.4-0.2-0.5-0.5s-0.1-0.4,0-0.4c0.1,0.1,1.6-1.9,2.2-3
		c0.2-0.4,0.5-0.7,0.6-0.7c0.4,0,4.8,2.8,4.8,3C63.9,32.9,62.7,34.5,62.3,34.5z M67.8,24.3c-0.2,1.1-0.9,2.9-1,3
		c-0.1,0.1-0.7-0.2-1.3-0.6c-1.4-0.9-2.7-1.2-2.2-0.7c0.2,0.2,0.9,0.7,1.6,1.2s1.3,0.9,1.3,1c0,0.4-1.3,2.6-1.5,2.6
		c-0.1,0-1.2-0.7-2.4-1.5v0c-2.4-1.6-2.5-1.7-2-2.4c0.4-0.5,2.1-4.4,2.1-5c0-0.5,0.2-0.5,3,0.7C67.8,23.7,67.9,23.7,67.8,24.3z
		 M69.8,17.3c-0.3,1.7-0.3,1.8-1.3,1.3c-0.5-0.2-1-0.4-1.2-0.4c-0.2,0-0.3-0.2-0.3-0.4c0-0.3,0-0.3-0.2-0.1
		c-0.2,0.2-0.3,0.2-0.5-0.4c-0.3-0.7-0.3-0.7-0.1,0c0.1,0.4,0,0.6-0.1,0.5c-0.1-0.1-0.4-0.1-0.6,0c-0.5,0.2,0.7,0.9,2.5,1.3
		c1.1,0.3,1.3,0.4,1.1,0.8c-0.1,0.3-0.2,0.9-0.3,1.3c-0.2,1.1-0.5,1.1-1.4,0.4h0c-0.4-0.3-0.7-0.6-0.8-0.5c-0.1,0.1-0.5-0.1-0.9-0.4
		s-0.8-0.4-0.9-0.3c-0.3,0.3-1.6-0.6-1.6-1.1c0-0.2,0.2-1,0.4-1.7c0.2-0.7,0.4-1.7,0.4-2.1c0-0.4,0.1-0.7,0.2-0.7
		c0.1,0.1,0.6,0.2,1.1,0.3c0.5,0.1,1.8,0.3,2.9,0.6C69.9,16.2,69.9,16.2,69.8,17.3z M67.3,10.8c0.1,0,0.2,0.2,0.2,0.5
		c0,0.3,0,0.5-0.1,0.5s-0.1-0.2-0.2-0.5C67.1,11,67.1,10.8,67.3,10.8z M68.6,14.2c-0.4-0.1-0.6-0.6-0.2-0.6c0.1,0,0.2-0.1,0.2-0.2
		s-0.2-0.2-0.4-0.2c-0.3,0-0.3-0.1-0.2-0.5c0.1-0.4,0.1-0.5-0.2-0.4c-0.4,0.2-0.5,0-0.1-0.6c0.2-0.3,0.3-0.3,0.5,0
		c0.2,0.3,0.2,0.3,0.2-0.1c0-0.2-0.1-0.4-0.2-0.4S68,11.2,68,11c0-0.4,1.3-0.3,1.9,0.1c0.4,0.3,0.5,0.6,0.5,1.3
		C70.4,14.3,70.1,14.6,68.6,14.2z M68.2,9.5c0.3,0.1,0.5,0.2,0.5,0.3c0,0.2-0.2,0.2-0.7,0.1C67.5,9.7,67.7,9.4,68.2,9.5z M68.9,10
		c0-0.3,0.4-0.2,1,0.3c0.6,0.5,0.4,0.6-0.5,0.2v0C69.2,10.4,68.9,10.1,68.9,10z M68.5,9c-0.6-0.3-1.2-0.6-1.3-0.7S66.9,8.1,67,8
		c0.1-0.1,0.5,0.1,1,0.3c0.5,0.3,0.9,0.4,0.9,0.4c0-0.1,0.3,0,0.7,0.2c0.4,0.2,0.7,0.4,0.7,0.5C70.4,9.7,69.5,9.5,68.5,9z"/>
</g>
<g>
	<path class="st1" d="M39.8,43l0.2,0.2c0,0.2-0.1,0.3,0.2,0.4l0,0.2c0.3,0.1,0.1,0.1,0.2,0.1c-0.2,0.1-0.2-0.1-0.3-0.3l-0.2,0.1
		c0.1-0.2,0.1-0.2,0.1-0.3c-0.2,0.2,0,0.1-0.2,0.3l-0.1-0.1C39.7,43.2,39.7,43.3,39.8,43z M46.6,46.5l-0.1,0.2
		c-0.1-0.2-0.1-0.1-0.3-0.3l0.1-0.2L46.6,46.5z M45.5,44.7l0.1-0.2l0.3,0.1C45.8,44.7,45.7,44.8,45.5,44.7z M42,41.2
		c0.1,0.2,0.1,0.4-0.2,0.6l-0.2-0.1l-0.1-0.5l-0.2,0.1c0.1-0.2,0.1,0,0.1-0.3c0-0.4,0.3-0.3,0.3,0c0,0.1-0.1,0.2-0.1,0.3
		C41.8,41.2,41.8,41.2,42,41.2z M40.1,39.6c-0.1,0.1-0.1,0.1-0.3,0C40,39.4,40,39.4,40.1,39.6z M43.1,42.9c-0.2,0.1-0.1,0-0.3,0.1
		c-0.1,0.1-0.1,0.2-0.2,0.3c-0.1,0.1-0.1,0.2-0.2,0.3c-0.1-0.1-0.1-0.1,0.1-0.3l-0.1-0.1c0.3-0.1,0.4-0.3,0.7-0.4
		c0.2-0.1,0.4-0.2,0.7-0.3c0-0.2-0.1-0.1,0-0.3c0,0.1,0.1,0.3,0.1,0.4C43.5,42.7,43.3,42.8,43.1,42.9z M41.8,39.2
		c-0.1,0-0.1,0,0-0.1c0.1-0.3,0.2-0.2,0.2-0.2s0.1,0.1-0.1,0.2C41.8,39.3,41.9,39.2,41.8,39.2z M47.1,41.6c-0.1-0.1-0.1-0.2,0.1-0.3
		c0.1,0.1,0.1,0.4,0.1,0.6C47.2,41.7,47.1,41.7,47.1,41.6z M46.5,40.5c-0.1,0.1-0.1,0-0.2,0c-0.1,0-0.1,0.1-0.2-0.1
		C46.4,40.1,46.5,40.3,46.5,40.5z M47.6,42.2c-0.1-0.2,0.3-0.1,0.4-0.1c-0.2,0.1-0.1,0-0.2,0.1c-0.2,0,0,0-0.1,0.1
		c-0.2-0.1-0.3-0.3-0.6-0.4c-0.3,0-0.2,0.2-0.9,0c-0.6-0.2-0.5-1-1.3-0.7c-0.2,0.1-0.2,0.2-0.4,0.3c-0.3,0.1-0.6,0.1-0.9,0.4
		l-0.1-0.2c0.3-0.1,0.2-0.1,0.4-0.3c0.1-0.1,0.3-0.1,0.4-0.2c0.2-0.1,0.2-0.2,0.4-0.3c0.3-0.1,0.1,0.1,0.4-0.1
		c-0.2-0.6-0.3-0.6-0.5-1c-0.2-0.3-0.1-0.8,0.1-1.1c0.1,0.3,0,0.7,0.1,0.9c0.1,0.2,0.2,0.3,0.2,0.5c0.1,0.2,0.1,0.3,0.2,0.5
		c0.1,0.2,0.6,0.9,0.8,0.9c0.1,0.1,0.6,0.1,0.7,0.1c0.1,0,0,0,0.1,0c0,0,0,0,0.1,0c0,0,0.1,0,0.1,0C47.2,41.9,47.3,42.1,47.6,42.2z
		 M47.7,41.6l0.2-0.1l0.1,0.2l-0.1,0.1C47.9,41.7,47.8,41.7,47.7,41.6z M47.1,38.7c0,0-0.2-0.2-0.1-0.5l0.2,0.2c0.1,0,0,0,0.1,0
		c0,0.1,0,0.1,0,0.2c0,0.2,0,0.1,0,0.2C47.1,38.9,47.1,38.8,47.1,38.7z M48.3,37.7c-0.2-0.3-0.5-0.6-0.9-0.7
		c-0.3-0.1-0.7-0.2-0.9-0.1l0,0.1c-0.1,0.1-0.1,0.2-0.3,0.2c-0.1-0.2,0.1-0.1-0.1-0.3c0,0,0,0,0,0L45.7,37c-1.1,0.4-2.1,0.8-3.2,1
		L42,38.1c-0.1,0,0,0-0.1,0c0,0,0,0,0,0l0,0l0,0c0,0.2-0.1,0.3-0.1,0.5c0,0.2,0,0.3-0.1,0.5c-0.1-0.2-0.1-0.4,0-0.6l0-0.2
		c-0.1,0,0,0-0.1,0c0,0,0,0.1,0,0.1l-0.1-0.1c-0.2,0.1-0.4,0.1-0.5,0.1c-0.2,0-0.3,0-0.5,0.1c-0.2,0-0.8,0.2-1,0.4l0,0.1l-0.1-0.1
		L39,38.9c0.4,0.4,0.2,0.2,0.4,0.6c0.2,0.3,0.5,0.4,0.7,0.6c-0.2,0.1-0.1,0.1-0.3,0c-0.2-0.1-0.2-0.1-0.3-0.2
		c-0.2,0.3-0.5,0.5-0.8,0.6c0.2-0.3,0.5-0.4,0.7-0.7c-0.1-0.2-0.2-0.2-0.3-0.4c-0.1-0.2-0.2-0.3-0.3-0.4c-0.3,0.3-0.5,0.4-0.7,0.7
		c0,0,0,0,0,0.1c-0.1,0.2-0.1,0.1-0.1,0.1c-0.2,0.3-0.2,0.5-0.3,0.8c0.4,0.1,0.4-0.1,0.6-0.2c0,0.4-0.4,0.3-0.6,0.4
		c0.1,0.2,0.5,1.2,0.9,1.3c0.4,0.1,0.3,0,0.5-0.1l0.2,0.1c-0.1,0-0.3,0-0.4,0.1c-0.2,0.1-0.2,0.1-0.3,0.3c-0.3-0.3-0.3-0.5-0.5-0.8
		c-0.1-0.2-0.2-0.2-0.2-0.4c0-0.2,0-0.3-0.1-0.4l-0.1,0c0.1,0.1,0,0.1,0,0.2c0,0.3,0.1,1,0.3,1.3l0.1-0.2c0.1,0.1,0.1,0.2,0,0.4
		c0.3,0.4,0.7,0.9,1.1,1.2c0.5,0.3,0.9,0.5,1.3,0.8c0.9,0.6,1.9,1.1,2.7,1.8c-0.1-0.2-0.3-0.3-0.3-0.6c0-0.3,0.3-0.4-0.5-1
		c-0.6-0.5-0.3-0.1-0.6-0.3c0,0,0,0,0,0l0.1-0.1c-0.3-0.3-0.1-0.2-0.3-0.5c-0.1-0.2-0.2-0.3-0.3-0.5c0.2,0.1,0.3,0.4,0.5,0.6
		c0.2-0.5,0.1-0.4,0.2-0.6c0.2,0.3-0.1,0.5-0.1,0.8c0.2,0.2,0.3,0,0.5,0.1c0,0.1,0,0.1-0.1,0.2c0.3,0.2,0.7,0.4,0.8,0.8
		c0.1,0.3,0,0.5,0.2,0.9c0.1,0,0.1-0.1,0.3-0.1c0.1,0,0.2,0,0.3,0.1l0,0.1c0.5,0.1,0.2,0,0.7,0.1c0.3,0.1,0.4-0.1,0.6,0
		c-0.1,0.2-0.2,0.2-0.4,0.2c-0.7-0.1-1.1-0.3-1.3-0.3c-0.1,0.2-0.1,0.2-0.1,0.4c0.2,0.1,2,1.8,3.7,1.5c-0.1-0.1,0-0.1,0-0.3
		c0-0.1,0-0.2,0.1-0.3c0.2-0.3,0.4-0.3,0.6-0.6c-0.1-0.1-0.5-0.2-0.7-0.2c-0.4-0.1-0.3-0.2-0.6-0.5c-0.2,0.1-0.3,0.1-0.4,0.2
		L46.1,46l0.1-0.3c-0.5-0.2-0.6,0-0.7,0.1c0.1,0.1,0.1,0.2,0.1,0.3c-0.1-0.2,0-0.1-0.1-0.3l-0.2,0.1c-0.1-0.2,0-0.1,0-0.2
		c0-0.1-0.3-0.3,0-0.7c0,0.2,0,0.1,0,0.2c0,0.1,0.1,0.2,0.2,0.2c0-0.1-0.1-0.1-0.1-0.2l0.2,0.1c0.1,0,0,0,0.1,0
		c0.2-0.2-0.1,0,0.1-0.1c0.1,0,0.1,0,0.2,0c0.1,0,0-0.1,0.1-0.2c0.1-0.1,0.1,0,0.2-0.1c0-0.2-0.1-0.2-0.1-0.3c0.1,0,0.4-0.3,0.6-0.3
		c0.1,0,0.5,0.1,0.6,0.3c0.1-0.1,0-0.1,0.2-0.1c0.1,0.2,0,0.1,0,0.3c0,0.2,0.1,0.3,0.2,0.5c0,0.2,0,0.1,0.1,0.3c0,0,0,0,0,0
		c-0.2,0.1-0.5,0-0.7,0.1c0,0.1,0,0.1,0,0.2c0.2,0.1,0.7,0.2,0.9,0.2c0.1-0.1,0.5-0.8,0.5-0.9c0-0.2-0.1-0.3-0.2-0.4
		c0-0.2,0.1-0.6,0-0.9C48.1,44,48,43.9,48,43.7c0-0.2,0.3-0.4,0.2-0.9l0.1,0.1c0-0.3,0-0.4,0-0.6c0.1-0.3,0.1-0.4,0-0.6
		c-0.2,0.1-0.4,0.1-0.6,0.1l0.1-0.1l0.1,0c0,0,0,0,0.1,0c0.1,0,0.3-0.1,0.4-0.3c0,0,0.2-0.8,0.2-1.1c-0.1-0.3,0.1-0.3,0.1-0.6
		l-0.4-0.3c0.3-0.1,0.2,0,0.4,0C48.7,39,48.7,38.2,48.3,37.7z"/>
	<path class="st1" d="M48.6,29.2c-0.4-0.2-0.7-0.1-1.1,0c0.4,0.3,0.1,0.4,0.8,0.9l-0.1,0.2c-0.2-0.1-0.4-0.4-0.6-0.6
		c-0.4-0.6-0.3-0.2-0.5-0.5l0.1,0.1c-0.1,0.1,0,0-0.1,0l0.1,0.1c-0.1,0.2-0.4,0.2-0.5,0.2c0,0.1,0,0,0,0.1c0,0-0.1,0.1-0.1,0.1
		c-0.1,0.1-0.1,0.2-0.2,0.2l-0.1,0.1l0,0.1c0,0-0.1,0.1-0.1,0.1c-0.1,0.1-0.1,0.2-0.2,0.3c-0.1,0.2-0.2,0.4-0.2,0.5
		c-0.2,0.4-0.3,0.9-0.3,1.1c0.3,0.1,0.5-0.1,1.1,0.1c0.5-0.6,0-0.5,0.9-0.7c0.1-0.2,0-0.5-0.1-0.7c0.1,0,0.1-0.1,0.2,0l0.2-0.4
		c0,0.1,0,1.1-0.2,1.2c-0.2,0.1-0.4-0.1-0.6,0.2c-0.2,0.4-0.2,0.4-0.5,0.4c0,0.2,0.1,0.2,0,0.3l-0.2-0.2c-0.2,0-0.2,0-0.4-0.1
		c-0.1,0-0.3-0.1-0.4-0.1c0,0.2-0.1,0.4-0.1,0.6c0,0.1,0,0.5,0,0.6c0.1,0.1,0.1,0.1,0,0.3c0.2,0.3,0.3,1.7,1.8,1.7l0-0.1l0.1,0.1
		c0.8-0.3,1.1-0.5,1.7-1.3c-0.6-0.4-0.7,0.3-1.1,0.2c-0.4-0.1-0.4-0.9-1.3-0.5c-0.2-0.2-0.2-0.5-0.1-0.7l0.1,0.1l-0.2,0.4
		c0.3,0.1,0.4,0,1,0.1c0.1,0.1,0.2,0.8,0.7,0.4c0.6-0.4,0.3-0.2,0.9,0l0.4-0.7c-0.3-0.5-0.3-0.6,0-1.2c0.2,0.3,0,0.3-0.1,0.5
		c0,0.2,0,0.3,0.1,0.5c0.1-0.2,0.1-0.3,0.2-0.5l0.1-0.3c0-0.1,0-0.1,0-0.1l-0.1,0.1c-0.1-0.1,0,0,0-0.2c0-0.1,0-0.3,0-0.5
		c-0.1-0.3-0.3-0.3-0.2-0.6c0.1,0.1,0.3,0.5,0.3,0.6l0.1,0.2c0-0.1,0.1-0.3,0.1-0.4c0-0.5,0-0.5,0-0.9l0-0.1l0,0
		c-0.1-0.1-0.1-0.3-0.1-0.4c-0.1,0.1-0.1,0.1,0,0.5c-0.2-0.2-0.1-0.3-0.3-0.4c-0.2-0.1-0.3-0.1-0.5-0.1c-0.7,0.7,0,0.6-0.9,0.9
		c-0.2,0.1,0,0.1-0.2,0c0,0-0.1-0.2,0.2-0.2c0.5-0.2,0.2-0.4,0.5-0.7c0.4-0.4,0.8,0.2,1.1-0.1C49.3,29.8,49.1,29.4,48.6,29.2z"/>
	<path class="st1" d="M51,34.6c0.1,0.2,0.1,0.3,0,0.4C50.9,34.9,50.9,34.8,51,34.6z M53.1,35.3c0.1-0.1,0.1-0.1,0.2,0
		C53.2,35.4,53.2,35.4,53.1,35.3z M53.5,34.9c-0.8,0.2-0.8,0-1.1,0.1c-0.1,0.3,0,0.6-0.1,0.8c-0.2-0.2-0.3-0.2-0.2-0.4
		c0-0.1,0-0.1,0-0.2c0-0.5,0-0.2,0.4-0.4c0-0.2-0.1-0.2-0.1-0.3c0.1-0.3,0.4-0.6,0-1l0.1-0.2c0.1,0,0.1,0,0.1,0.1l0.1-0.2
		c-0.2,0-0.3-0.1-0.4-0.3c0,0.1,0,0,0,0.1c-0.5,0.2-1.1,0.5-1.6,1c-0.3,0.3-0.5,0.5-0.8,0.9c-0.2,0.3-0.3,0.6-0.5,0.9l0,0.4
		c0,0.1,0,0.2,0,0.4c0,0.5,0.2,0.5,0.1,0.7c-0.3-0.4-0.2-0.6-0.3-0.9c0,0.1-0.1,0.3-0.1,0.5c0,0.2,0,0.3,0,0.4
		c0.2,0.3,0.5,0.2,0.8,0.3c0.4-0.4,0.6-0.6,1-0.7c0.5,0,0.7,0,1.1,0.4c0.6-0.6,0.2-0.9,0.3-1.4c0.1,0.3,0.3,0.8,0.2,1.1
		c-0.1,0.4-0.4,0.3-0.1,0.6c0.1,0.1,0.1,0.2,0.1,0.3c0.1-0.2,0.4-0.4,0.6-0.5c0.2-0.2,0.4-0.4,0.6-0.7c0-0.1,0.1-0.2,0.1-0.3
		c0-0.2-0.1-0.1,0-0.3l0.2,0.3l0.5-0.8C54.1,35,53.9,35.4,53.5,34.9z"/>
	<path class="st1" d="M42.9,31.2l-0.3,0.5c-0.2,0.2-0.2,0.1-0.2,0.1l0.9-1.4c-0.2-0.1-0.3-0.3-0.5-0.4c-0.2-0.1-0.3-0.1-0.5-0.1
		c-0.2,0.3-0.2,0.3-0.1,0.5L42,30.5c-0.1,0-0.3-0.1-0.6,0.1c-0.5,0.4-0.3,0.7-0.3,0.9c0,0.2,0,0.2,0.1,0.3c0.2,0.2,0.5,0.3,0.7,0.5
		c-0.1,0.1-0.1,0-0.2,0.1l-0.5-0.5c-0.1,0.2,0,0.3,0,0.4c0.1,0.2,0.1,0.2,0.2,0.5L41.4,33c0.2,0,0.5-0.1,0.7-0.2l0.5,0.4
		c0,0.4-0.2,0.1,0,0.5c0.1,0.2,0.2,0.4,0.3,0.5c0.2-0.1,0.5-0.2,0.7-0.2l0-0.6l0.5-0.5c0-0.1,0-0.2,0-0.3c0-0.1,0-0.1,0-0.2
		c0-0.1,0-0.1,0-0.2l-0.1-0.5c-0.1-0.1-0.1-0.4-0.2-0.6c-0.1-0.2-0.2-0.5-0.4-0.6C43.2,30.7,43,30.9,42.9,31.2z"/>
	<path class="st1" d="M52.6,42.3c0,0.1,0.1,0-0.1,0.3C52.4,42.4,52.5,42.3,52.6,42.3z M53.5,43.1l-0.3-0.2c-0.1,0.1-0.1,0.1-0.1,0.2
		c-0.3-0.2-0.7-0.1-0.7-0.5c0.2,0,0.1,0,0.3,0.1c0.2-0.2,0.3-0.3,0.6-0.2c-0.1,0-0.2,0-0.3,0.1c0.1,0.1,0.3,0.1,0.4,0
		c0-0.1-0.1-0.5-0.2-0.7c-0.2-0.4-0.3-0.2-0.6-0.5l0.2-0.1c-0.5-0.4-0.4-0.4-0.3-0.6c-0.4-0.1-0.7,0-1.1-0.2c0.2-0.1,0.8-0.1,1,0
		c0.1-0.2,0.1-0.6,0.1-0.8l0-0.6c0-0.1,0-0.1,0-0.2c-0.2,0.2-0.4,0.3-0.6,0.5c-0.2,0.1-0.6,0.6-0.7,0.6c0.1,0.1,0.1,0.1,0.3,0.2
		c-0.2,0.1-0.2-0.1-0.4,0c-0.1,0.2-0.3,0.5-0.4,0.8c-0.1,0.3-0.1,0.5-0.1,0.8c0,0.8,0.7,1.1,1.1,1.3c0,0,0.1-0.1,0.1-0.1
		c0.2-0.1,0,0,0.1,0c0,0.1,0.1,0,0,0.1l0.1,0l0.2,0c0,0,0,0,0,0c0.2,0,0.2,0,0.4,0c0.1,0,0.2,0,0.3,0c0.2,0,0.5-0.1,0.7-0.1
		L53.5,43.1z"/>
	<path class="st1" d="M55.9,41.4c0-0.1,0-0.2-0.1-0.3c-0.1-0.2-0.2-0.3-0.4-0.5c-0.3,0.2-0.4-0.1-0.7-0.2c-0.3-0.1-0.4,0-0.7,0
		c-0.7,0.1-0.9-0.1-1.3,0c-0.2,0.4-0.1,0.5,0.2,0.9c0.2,0.3,0.3,0.6,0.6,0.9l-0.1,0.1l0.3,0.1c-0.1,0.2,0,0.1-0.1,0.2
		c0,0.1,0,0.1-0.1,0.2c0.1,0.1,0.1,0.1,0.2,0.1c0,0.1,0,0.1-0.1,0.1l0.2-0.1c0.1,0,0.1,0,0.2-0.1c0.1-0.1,0.3-0.2,0.5-0.3
		c0.2-0.1,0.3-0.2,0.5-0.3c0.4-0.2,0.6-0.5,0.9-0.8C55.9,41.6,55.9,41.5,55.9,41.4z"/>
	<path class="st1" d="M40.8,33.4c-0.1,0.1-0.2,0.1-0.4,0l0.2-0.2L40.8,33.4z M41.3,35.9c-0.3-0.2-0.3,0-0.6-0.3
		c0.3,0.1,0.5,0.1,0.8-0.1c0-0.2,0-0.2,0.1-0.4l0.1,0.1c-0.1,0.1-0.1,0.2-0.1,0.3l0.4-0.2c0-0.2,0-0.2,0-0.3c0,0,0,0,0,0
		c0,0,0,0,0,0c0,0,0,0,0,0l0.1-0.2c-0.1,0-0.1,0-0.3-0.1l-0.1,0c-0.2-0.2-0.2-0.4-0.3-0.6c-0.2-0.3-0.2-0.3-0.3-0.6L41,33.6
		l-0.2-0.2l0.2-0.1c-0.2-0.3-0.2-0.6-0.4-0.8c-0.6,0-0.6-0.1-0.8-0.1c-0.1,0.7-0.3,1.4-0.1,2.1c0,0.1,0,0.2,0.1,0.3
		c0,0.1,0,0.1,0,0.2c0,0.1,0,0.1,0,0.1c0.4-0.1,0.5-0.3,1,0c0.2,0.1,0.2,0.2,0.2,0.3c-0.2-0.1-0.3-0.3-0.6-0.3
		c-0.2,0-0.4,0.1-0.6,0.2c0.1,0,0.1,0,0.1,0.1c0,0,0,0.1,0.1,0.2c0.2,0.3,0.5,0.7,0.8,0.9C41.1,36.4,41.3,36,41.3,35.9z"/>
	<path class="st1" d="M54.7,39.3c-0.1-0.1-0.1-0.1,0-0.2l0.2,0.1L54.7,39.3z M52.7,39l0,1.3c0.1,0,0.2,0,0.3,0c0.1,0,0.2,0,0.3,0
		c0.2,0,0.4,0,0.6-0.1c0.5-0.2,0.7,0.1,1.3,0.2c0.2-0.2,0.3-0.6,0.3-0.9c0.2-0.6-0.1-0.4,0.5-0.8l-0.3-0.2c-0.2,0.1,0,0.1-0.3,0.2
		c0-0.1,0,0,0-0.1c0,0,0-0.1,0-0.1c-0.6-0.1-1-0.2-1.5,0C53.6,38.6,53.2,38.7,52.7,39C52.7,39,52.7,39,52.7,39z"/>
	<path class="st1" d="M49.7,45.8c0.1-0.3,0-0.9,0-1.2c0-0.1-0.1-0.2-0.1-0.3c-0.2-0.8-0.9-1.9-0.8-2.7c-0.1,0-0.1,0.1-0.1,0.1
		c0,0.1,0,0.4,0,0.8l0,0.4c0,0.2,0.1,0.1,0.1,0.4c-0.2,0.1-0.2,0.1-0.2,0.4c0,0.1-0.1,0.3-0.1,0.4c0.1,0.1,0.1,0,0.2,0.1
		c0,0.3,0,0.2,0.2,0.4c-0.2,0.3-0.3,0.2-0.2,0.6c0,0.2,0.2,0.2,0.1,0.4c0,0.1,0,0,0,0.1l0,0.1c0.2,0.2,0.7,0.7,0.8,0.8
		C49.4,46.2,49.6,46,49.7,45.8z"/>
	<path class="st1" d="M50.4,37.9c-0.1-0.1-0.1-0.2,0-0.4l0.2,0.1c-0.1,0-0.1,0-0.2,0.1C50.5,37.8,50.5,37.8,50.4,37.9z M51,36.9
		c-0.5,0-0.8,0.5-1.1,0.7c-0.2,0.1-0.2,0.1-0.4,0c-0.1,0.1-0.1,0.3-0.1,0.4c0.5,0.4,1,0.5,1.5,0.4c0.3,0,1.1-0.3,1.4-0.6
		C52.4,37.4,51.4,37,51,36.9z"/>
	<path class="st1" d="M48.6,45.9c-0.4,0.6-0.4,0.7-0.5,1c-0.2,0.4-0.6,0.5-0.5,1c0.2-0.1,0.4-0.2,0.6-0.3c0.2-0.1,0.4-0.3,0.6-0.4
		c0-0.2,0-0.2,0.1-0.5c0.1,0.2,0,0.2,0,0.4l0.4-0.5C48.9,46.4,48.9,46.2,48.6,45.9z"/>
	<path class="st1" d="M56.4,40.6l-0.2,0.3c-0.1-0.1-0.1-0.2,0-0.4c0.2,0,0.2,0.1,0.4-0.2c-0.1-0.1-0.1-0.1-0.2-0.1l0.2-0.1
		c0.1-0.3,0-0.4,0-0.6c-0.3-0.1-0.4,0.1-0.7,0c-0.1,0.1-0.1,0.3-0.2,0.5c-0.1,0.3,0.1,0.1,0,0.4l0,0.1c0.1,0.2,0.1,0,0.1,0.3
		c0,0.1,0,0.2,0.1,0.3c0.1,0.3,0,0.3,0.3,0.5c0,0,0,0,0,0c0,0,0,0,0,0l0-0.1c0-0.1,0,0,0-0.1c0-0.1,0.1-0.1,0.1-0.1c0,0-0.1-0.1,0,0
		c0-0.1,0,0,0.1-0.1l0,0l0.1-0.2L56.4,40.6z"/>
	<path class="st1" d="M42,33.4c-0.1-0.1-0.3-0.2-0.4-0.3c-0.1,0-0.3,0.1-0.4,0.1c0,0.2,0.2,0.7,0.4,0.9c0-0.3-0.1-0.5,0-0.8
		c0.1,0.2,0.1,0.2,0.1,0.4l0.1-0.1c0.1,0.2,0.1,0.5,0.1,0.7c0.2,0,0,0,0.2,0c0.2,0.3,0.2,0.5,0.2,0.7c0.2,0,0.1,0,0.3,0
		c-0.1-0.5-0.2-0.8-0.5-1.4c0.1-0.2,0.3-0.3,0.1-0.5L42,33.4z"/>
	<path class="st1" d="M41.8,36.3C41.8,36.3,41.8,36.3,41.8,36.3C41.8,36.3,41.9,36.3,41.8,36.3c0.2-0.1,0.3-0.2,0.4-0.3
		c0.2-0.2,0.2-0.2,0.4-0.4c-0.1-0.1,0-0.1-0.1-0.2l-0.2,0c-0.1,0.1-0.2,0.4-0.3,0.6c-0.2-0.2-0.2-0.2-0.1-0.4c-0.5,0-0.4,0.2-0.9,1
		c0.2,0.1,0.2,0.1,0.4,0.1c0.1,0,0.2,0,0.3,0C41.8,36.5,41.8,36.4,41.8,36.3z"/>
	<path class="st1" d="M40.1,32.2c0.1,0,0,0,0.1,0c0.4,0.2,0.4,0,0.8,0c0,0.2,0.1,0.5,0.3,0.6c0.2-0.4-0.1-0.4-0.2-0.7l-0.1,0
		c0-0.2,0.1-0.4-0.2-0.6c-0.2-0.1-0.5,0-0.6,0.1c0,0,0,0,0,0.1c0,0,0,0,0,0c0,0,0,0,0,0c0,0.1-0.1,0.2-0.1,0.4L40.1,32.2z"/>
	<path class="st1" d="M43.3,34.9c0.1-0.3,0.2-0.3,0.2-0.5c-0.1,0-0.5,0.1-0.6,0.2c-0.1,0.3,0,0.4,0.1,0.5c0,0.1,0,0.1,0,0.2
		C43.2,35.2,43.3,35.1,43.3,34.9z"/>
	<path class="st1" d="M43.2,35.5c-0.2,0.1-0.2,0.1-0.3,0.3c-0.1,0.2-0.1,0.2-0.3,0.3c-0.2,0.1-0.6,0.3-0.6,0.5
		C42.3,36.5,43.1,35.8,43.2,35.5z"/>
	<path class="st1" d="M44,33.2l-0.2,0.3c0.1,0.2,0.1,0.3,0,0.5l0.1,0C43.8,33.9,44,33.4,44,33.2z"/>
	<path class="st1" d="M49.4,37.6l-0.2-0.2c0,0.1,0,0,0,0.1c0,0,0,0.1,0,0.1c0,0.1,0.1,0.1,0.1,0.2L49.4,37.6z"/>
	<path class="st1" d="M42.1,33.2L41.9,33c-0.1,0.2-0.1,0.1,0.1,0.3L42.1,33.2z"/>
	<path class="st1" d="M45.9,45.3C46,45.4,45.9,45.4,45.9,45.3L45.9,45.3z"/>
</g>
</svg>
