<?xml version="1.0" encoding="utf-8"?>
<!-- Generator: Adobe Illustrator 22.1.0, SVG Export Plug-In . SVG Version: 6.00 Build 0)  -->
<svg version="1.1" id="Layer_1" xmlns="http://www.w3.org/2000/svg" xmlns:xlink="http://www.w3.org/1999/xlink" x="0px" y="0px"
	 viewBox="0 0 52.2 40.7" style="enable-background:new 0 0 52.2 40.7;" xml:space="preserve">
<style type="text/css">
	.st0{fill:#FFFFFF;}
</style>
<g>
	<path class="st0" d="M45.9,0H14c-3.5,0-6.4,2.3-6.4,5.2v6c0,0.3,0.3,0.6,0.6,0.6c0.3,0,0.6-0.3,0.6-0.6v-6c0-2.2,2.3-4.1,5.2-4.1
		h31.9c2.9,0,5.2,1.8,5.2,4.1v30.3c0,2.2-2.3,4.1-5.2,4.1H14c-2.9,0-5.2-1.8-5.2-4.1v-5.7c0-0.3-0.3-0.6-0.6-0.6s-0.6,0.3-0.6,0.6
		v5.7c0,2.9,2.9,5.2,6.4,5.2h31.9c3.5,0,6.4-2.3,6.4-5.2V5.2C52.2,2.3,49.4,0,45.9,0z"/>
	<path class="st0" d="M44.5,9.2h-29c-0.7,0-1.2,0.6-1.2,1.2s0.6,1.2,1.2,1.2h29c0.7,0,1.2-0.6,1.2-1.2S45.2,9.2,44.5,9.2z"/>
	<path class="st0" d="M44.5,30.2h-29c-0.7,0-1.2,0.6-1.2,1.2c0,0.7,0.6,1.2,1.2,1.2h29c0.7,0,1.2-0.6,1.2-1.2
		C45.8,30.7,45.2,30.2,44.5,30.2z"/>
	<path class="st0" d="M45.8,20.1c-0.2-0.3-0.6-0.4-1-0.4H20.4l0,0H6.1l1.2-1.2c0,0,0,0,0,0l3.1-3.1c0.1-0.1,0.1-0.2,0.1-0.3
		c0-0.1-0.1-0.2-0.2-0.2H7.2L2,20c-0.2,0.2-0.4,0.6-0.4,0.9c0,0.3,0.1,0.7,0.4,0.9L7.2,27h3.1c0.1,0,0.2-0.1,0.2-0.2s0-0.2-0.1-0.3
		l-3-3.1l-1.4-1.4h1.8c0,0,0,0,0,0h36.8c0.7,0,1.3-0.4,1.4-1C46.1,20.7,46,20.4,45.8,20.1z"/>
</g>
</svg>
