<?xml version="1.0" encoding="utf-8"?>
<!-- Generator: Adobe Illustrator 22.1.0, SVG Export Plug-In . SVG Version: 6.00 Build 0)  -->
<svg version="1.1" id="Layer_1" xmlns="http://www.w3.org/2000/svg" xmlns:xlink="http://www.w3.org/1999/xlink" x="0px" y="0px"
	 viewBox="0 0 52.2 40.7" style="enable-background:new 0 0 52.2 40.7;" xml:space="preserve">
<style type="text/css">
	.st0{fill:#FFFFFF;}
</style>
<g>
	<path class="st0" d="M45.9,0H14c-3.5,0-6.4,2.3-6.4,5.2v6c0,0.3,0.3,0.6,0.6,0.6s0.6-0.3,0.6-0.6v-6c0-2.2,2.3-4.1,5.2-4.1h31.9
		c2.9,0,5.2,1.8,5.2,4.1v30.3c0,2.2-2.3,4.1-5.2,4.1H14c-2.9,0-5.2-1.8-5.2-4.1v-5.7c0-0.3-0.3-0.6-0.6-0.6s-0.6,0.3-0.6,0.6v5.7
		c0,2.9,2.9,5.2,6.4,5.2h31.9c3.5,0,6.4-2.3,6.4-5.2V5.2C52.2,2.3,49.4,0,45.9,0z"/>
	<path class="st0" d="M7.9,22.9h36.9c1.1,0,2-0.9,2-2c0-1.1-0.9-2-2-2H7.9l4.8-4.8H6.9L0,20.9l6.9,6.9h5.8L7.9,22.9z"/>
	<path class="st0" d="M44.5,12.5c1.1,0,2-0.9,2-2s-0.9-2-2-2h-29c-1.1,0-2,0.9-2,2s0.9,2,2,2H44.5z"/>
	<path class="st0" d="M44.5,29.4h-29c-1.1,0-2,0.9-2,2s0.9,2,2,2h29c1.1,0,2-0.9,2-2S45.6,29.4,44.5,29.4z"/>
</g>
</svg>
